<?xml version="1.0" encoding="UTF-8"?>
<svg width="178px" height="55px" viewBox="0 0 178 55" version="1.1" xmlns="http://www.w3.org/2000/svg" xmlns:xlink="http://www.w3.org/1999/xlink">
    <!-- Generator: Sketch 44.1 (41455) - http://www.bohemiancoding.com/sketch -->
    <title>SWR </title>
    <desc>Created with Sketch.</desc>
    <defs>
        <polygon id="path-1" points="0.314059631 0.293803419 15.9320332 0.293803419 15.9320332 22.6250726 0.314059631 22.6250726"></polygon>
    </defs>
    <g id="Page-1" stroke="none" stroke-width="1" fill="none" fill-rule="evenodd">
        <g id="C4-PIDD-Global:-Green" transform="translate(-162.000000, -50.000000)">
            <g id="Navigation">
                <g id="SWR-" transform="translate(162.000000, 50.000000)">
                    <g id="Group-3" transform="translate(0.939314, 0.176282)">
                        <mask id="mask-2" fill="white">
                            <use xlink:href="#path-1"></use>
                        </mask>
                        <g id="Clip-2"></g>
                        <path d="M12.1517641,6.15562821 C11.9343129,4.66686752 11.1603182,3.24015812 8.27803325,3.24015812 C5.82971135,3.24015812 4.1877905,3.8296453 4.1877905,6.15562821 C4.1877905,11.3660556 15.9320332,8.04725214 15.9320332,16.4218248 C15.9320332,21.0122094 12.0583024,22.6250726 8.27803325,22.6250726 C2.51440264,22.6250726 0.314059631,18.6857564 0.314059631,15.9569103 C0.314059631,15.5531068 0.624033245,15.2433205 1.02699894,15.2433205 L2.88590132,15.2433205 C3.28886702,15.2433205 3.53637625,15.5846026 3.56784327,15.894859 C3.6603657,16.918235 4.28031293,19.6785769 8.27803325,19.6785769 C10.9738644,19.6785769 12.6157852,18.809859 12.6157852,16.4218248 C12.6157852,11.3040043 0.87154248,14.5607564 0.87154248,6.15562821 C0.87154248,2.34088462 3.59884063,0.293662393 8.33955831,0.293662393 C13.5461757,0.293662393 15.4980702,3.45733761 15.4980702,6.09357692 C15.4980702,6.49691026 15.1566296,6.80716667 14.7541335,6.80716667 L12.8947615,6.80716667 C12.4922654,6.80716667 12.2442865,6.58998718 12.1517641,6.15562821" id="Fill-1" fill="#000000" mask="url(#mask-2)"></path>
                    </g>
                    <path d="M24.5554992,19.9478419 C26.4763963,19.9478419 27.8708079,18.6142094 27.8708079,16.1330983 L27.8708079,13.3412607 C27.8708079,10.8601496 26.4763963,9.52651709 24.5554992,9.52651709 C22.6336628,9.52651709 21.2091931,10.8601496 21.2091931,13.3412607 L21.2091931,16.1330983 C21.2091931,18.6142094 22.6336628,19.9478419 24.5554992,19.9478419 M24.5554992,6.67309829 C28.2742433,6.67309829 31.2180533,9.40241453 31.2180533,13.744594 L31.2180533,15.7607906 C31.2180533,20.1029701 28.2742433,22.8012607 24.5554992,22.8012607 C20.8057578,22.8012607 17.8929451,20.1029701 17.8929451,15.7607906 L17.8929451,13.744594 C17.8929451,9.40241453 20.8057578,6.67309829 24.5554992,6.67309829" id="Fill-4" fill="#000000"></path>
                    <path d="M45.5946765,7.72745299 L45.5946765,21.7778376 C45.5946765,22.1807009 45.2847029,22.4909573 44.8817372,22.4909573 L42.9913678,22.4909573 C42.5888718,22.4909573 42.2784285,22.1807009 42.2784285,21.7778376 L42.2784285,20.8165128 C41.5044338,21.9014701 40.3580011,22.8012137 38.1271303,22.8012137 C34.5009087,22.8012137 32.7349984,20.1029231 32.7349984,15.7607436 L32.7349984,7.72745299 C32.7349984,7.29309402 33.044972,6.98330769 33.4479377,6.98330769 L35.3373678,6.98330769 C35.7403335,6.98330769 36.0503071,7.29309402 36.0503071,7.72745299 L36.0503071,16.1330513 C36.0503071,18.6141624 37.2282069,19.9477949 39.1185763,19.9477949 C41.0080063,19.9477949 42.2784285,18.6141624 42.2784285,16.1330513 L42.2784285,7.72745299 C42.2784285,7.29309402 42.5888718,6.98330769 42.9913678,6.98330769 L44.8817372,6.98330769 C45.2847029,6.98330769 45.5946765,7.29309402 45.5946765,7.72745299" id="Fill-6" fill="#000000"></path>
                    <path d="M49.9628623,17.528594 L49.9628623,9.92966239 L47.824514,9.92966239 C47.4220179,9.92966239 47.1120443,9.61987607 47.1120443,9.21607265 L47.1120443,7.72731197 C47.1120443,7.29342308 47.4220179,6.98316667 47.824514,6.98316667 C49.3438544,6.98316667 49.9938596,6.6423547 49.9938596,5.02902137 L49.9938596,3.69538889 C49.9938596,3.26102991 50.3043029,2.95124359 50.7067989,2.95124359 L52.5037066,2.95124359 C52.9066723,2.95124359 53.2476433,3.26102991 53.2476433,3.69538889 L53.2476433,6.98316667 L56.3774375,6.98316667 C56.7804032,6.98316667 57.0903768,7.29342308 57.0903768,7.72731197 L57.0903768,9.21607265 C57.0903768,9.61987607 56.7804032,9.92966239 56.3774375,9.92966239 L53.2476433,9.92966239 L53.2476433,17.0321838 C53.2476433,18.8001752 53.4641551,19.4517137 55.2934691,19.4517137 L56.3774375,19.4517137 C56.7804032,19.4517137 57.0903768,19.7925256 57.0903768,20.195859 L57.0903768,21.7776966 C57.0903768,22.1805598 56.7804032,22.4912863 56.3774375,22.4912863 L54.7345773,22.4912863 C51.0167726,22.4912863 49.9628623,20.7232949 49.9628623,17.528594" id="Fill-8" fill="#000000"></path>
                    <path d="M58.6074628,21.7776966 L58.6074628,1.52453419 C58.6074628,1.09017521 58.9174364,0.779918803 59.3204021,0.779918803 L61.2107715,0.779918803 C61.6132675,0.779918803 61.9237108,1.09017521 61.9237108,1.52453419 L61.9237108,8.75115812 C62.7601699,7.54162821 63.9991251,6.67291026 66.1999377,6.67291026 C70.0112042,6.67291026 71.8395789,9.52632906 71.8395789,13.744406 L71.8395789,21.7776966 C71.8395789,22.1805598 71.5296053,22.4912863 71.1266396,22.4912863 L69.2362702,22.4912863 C68.8333045,22.4912863 68.5233309,22.1805598 68.5233309,21.7776966 L68.5233309,13.3415427 C68.5233309,10.8599615 67.1603863,9.52632906 65.2084918,9.52632906 C63.3176528,9.52632906 61.9237108,10.8599615 61.9237108,13.3415427 L61.9237108,21.7776966 C61.9237108,22.1805598 61.6132675,22.4912863 61.2107715,22.4912863 L59.3204021,22.4912863 C58.9174364,22.4912863 58.6074628,22.1805598 58.6074628,21.7776966" id="Fill-10" fill="#000000"></path>
                    <path d="M103.910107,1.30740171 C103.910107,1.40000855 103.879109,1.58663248 103.785178,1.83436752 L98.3009931,21.9328718 C98.2080011,22.2121026 97.9604918,22.4908632 97.5880538,22.4908632 L95.1711989,22.4908632 C94.7997003,22.4908632 94.5517214,22.2121026 94.4582596,21.9328718 L90.2754945,5.77368376 L86.1537847,21.9328718 C86.09179,22.2121026 85.8438111,22.4908632 85.441315,22.4908632 L83.0864549,22.4908632 C82.7764813,22.4908632 82.4665077,22.3051795 82.3739852,21.9328718 L76.8578639,1.98949573 C76.7958691,1.74176068 76.702877,1.43150427 76.702877,1.30740171 C76.702877,0.997145299 76.9193889,0.779965812 77.1983652,0.779965812 L79.4917003,0.779965812 C79.7706765,0.779965812 80.1421752,0.904538462 80.2666343,1.49355556 L84.2944127,17.528641 L88.4785868,1.5245812 C88.6021066,1.02817094 88.8500855,0.779965812 89.2215842,0.779965812 L91.4219272,0.779965812 C91.7319008,0.779965812 92.0414047,0.935094017 92.1963916,1.5245812 L96.380096,17.528641 L100.377816,1.5245812 C100.470339,1.18329915 100.656323,0.779965812 101.151811,0.779965812 L103.382682,0.779965812 C103.692655,0.779965812 103.910107,0.997145299 103.910107,1.30740171" id="Fill-12" fill="#000000"></path>
                    <path d="M112.461151,13.1242692 C112.461151,10.8603376 111.035742,9.52670513 109.114845,9.52670513 C107.193009,9.52670513 105.768539,10.8603376 105.768539,13.1242692 L105.768539,13.4655513 L112.461151,13.4655513 L112.461151,13.1242692 Z M109.145843,19.9480299 C110.230281,19.9480299 111.376713,19.7308504 112.182175,18.0869615 C112.306165,17.9318333 112.492149,17.6526026 112.926112,17.6526026 L114.909473,17.6526026 C115.219447,17.6526026 115.404961,17.8697821 115.404961,18.1485427 C115.404961,18.304141 115.343436,18.5208504 115.280972,18.6764487 C114.134539,21.6845256 111.438239,22.8014487 109.145843,22.8014487 C105.427099,22.8014487 102.452291,20.1031581 102.452291,15.7605085 L102.452291,13.744312 C102.452291,9.40260256 105.396101,6.67281624 109.114845,6.67281624 C112.802592,6.67281624 115.714935,9.4952094 115.714935,13.6517051 L115.714935,15.1094402 C115.714935,15.5123034 115.374434,15.8225598 114.971938,15.8225598 L105.768539,15.8225598 L105.768539,16.2569188 C105.768539,18.4898248 107.224476,19.9480299 109.145843,19.9480299 L109.145843,19.9480299 Z" id="Fill-14" fill="#000000"></path>
                    <path d="M116.582579,18.4898718 C116.551582,18.3657692 116.520115,18.1800855 116.551582,18.0559829 C116.551582,17.7457265 116.768094,17.5595726 117.078068,17.5595726 L118.999434,17.5595726 C119.339936,17.5595726 119.494922,17.7457265 119.587445,18.0249573 C119.804896,18.8621795 120.486838,20.1032051 122.717709,20.1032051 C124.484089,20.1032051 125.599524,19.5447436 125.599524,18.1485897 C125.599524,14.9233333 116.799091,17.528547 116.799091,11.2011966 C116.799091,8.00649573 119.557387,6.67286325 122.656184,6.67286325 C126.46745,6.67286325 127.954384,8.99931624 128.450812,10.7983333 C128.481809,10.8914103 128.511867,11.077094 128.511867,11.2326923 C128.481809,11.5424786 128.264358,11.7596581 127.954384,11.7596581 L126.033487,11.7596581 C125.661049,11.7596581 125.568527,11.605 125.444537,11.2632479 C125.134564,10.395 124.608078,9.37162393 122.532194,9.37162393 C121.199308,9.37162393 119.99135,9.77448718 119.99135,11.0460684 C119.99135,14.4579487 128.760785,11.852735 128.760785,18.0559829 C128.760785,21.5604701 125.909498,22.8014957 122.686242,22.8014957 C118.905973,22.8014957 116.923081,20.5681197 116.582579,18.4898718" id="Fill-16" fill="#000000"></path>
                    <path d="M131.703327,17.528594 L131.703327,9.92966239 L129.564979,9.92966239 C129.162483,9.92966239 128.852509,9.61987607 128.852509,9.21607265 L128.852509,7.72731197 C128.852509,7.29342308 129.162483,6.98316667 129.564979,6.98316667 C131.08338,6.98316667 131.733385,6.6423547 131.733385,5.02902137 L131.733385,3.69538889 C131.733385,3.26102991 132.043828,2.95124359 132.446325,2.95124359 L134.244172,2.95124359 C134.647137,2.95124359 134.987169,3.26102991 134.987169,3.69538889 L134.987169,6.98316667 L138.116963,6.98316667 C138.520868,6.98316667 138.829902,7.29342308 138.829902,7.72731197 L138.829902,9.21607265 C138.829902,9.61987607 138.520868,9.92966239 138.116963,9.92966239 L134.987169,9.92966239 L134.987169,17.0321838 C134.987169,18.8001752 135.20462,19.4517137 137.032995,19.4517137 L138.116963,19.4517137 C138.520868,19.4517137 138.829902,19.7925256 138.829902,20.195859 L138.829902,21.7776966 C138.829902,22.1805598 138.520868,22.4912863 138.116963,22.4912863 L136.475042,22.4912863 C132.756298,22.4912863 131.703327,20.7232949 131.703327,17.528594" id="Fill-18" fill="#000000"></path>
                    <path d="M149.830068,13.1242692 C149.830068,10.8603376 148.404659,9.52670513 146.483761,9.52670513 C144.561925,9.52670513 143.137455,10.8603376 143.137455,13.1242692 L143.137455,13.4655513 L149.830068,13.4655513 L149.830068,13.1242692 Z M146.514759,19.9480299 C147.599197,19.9480299 148.74563,19.7308504 149.551091,18.0869615 C149.675081,17.9318333 149.861065,17.6526026 150.295028,17.6526026 L152.27792,17.6526026 C152.588363,17.6526026 152.773408,17.8697821 152.773408,18.1485427 C152.773408,18.304141 152.711883,18.5208504 152.649418,18.6764487 C151.503455,21.6845256 148.807155,22.8014487 146.514759,22.8014487 C142.796015,22.8014487 139.821207,20.1031581 139.821207,15.7605085 L139.821207,13.744312 C139.821207,9.40260256 142.765017,6.67281624 146.483761,6.67281624 C150.171508,6.67281624 153.083382,9.4952094 153.083382,13.6517051 L153.083382,15.1094402 C153.083382,15.5123034 152.74335,15.8225598 152.340384,15.8225598 L143.137455,15.8225598 L143.137455,16.2569188 C143.137455,18.4898248 144.593392,19.9480299 146.514759,19.9480299 L146.514759,19.9480299 Z" id="Fill-20" fill="#000000"></path>
                    <path d="M154.72549,21.7776966 L154.72549,7.72731197 C154.72549,7.29342308 155.035464,6.98316667 155.43843,6.98316667 L157.142345,6.98316667 C157.545311,6.98316667 157.886282,7.29342308 157.886282,7.72731197 L157.886282,9.30961966 C158.630218,8.00654274 159.993633,6.98316667 162.007992,6.98316667 L162.410488,6.98316667 C162.813453,6.98316667 163.123427,7.29342308 163.123427,7.72731197 L163.123427,9.58838034 C163.123427,9.99171368 162.813453,10.3019701 162.410488,10.3019701 L161.945527,10.3019701 C159.373216,10.3019701 158.010271,11.8527821 158.010271,14.7682521 L158.010271,21.7776966 C158.010271,22.1805598 157.700298,22.4912863 157.266335,22.4912863 L155.43843,22.4912863 C155.035464,22.4912863 154.72549,22.1805598 154.72549,21.7776966" id="Fill-22" fill="#000000"></path>
                    <path d="M164.547897,21.7776966 L164.547897,7.72731197 C164.547897,7.29342308 164.85787,6.98316667 165.260836,6.98316667 L167.151205,6.98316667 C167.553701,6.98316667 167.864145,7.29342308 167.864145,7.72731197 L167.864145,8.75115812 C168.700604,7.54162821 169.939559,6.67291026 172.140372,6.67291026 C175.951638,6.67291026 177.780013,9.52632906 177.780013,13.744406 L177.780013,21.7776966 C177.780013,22.1805598 177.470039,22.4912863 177.067073,22.4912863 L175.176704,22.4912863 C174.773738,22.4912863 174.463765,22.1805598 174.463765,21.7776966 L174.463765,13.3415427 C174.463765,10.8599615 173.069823,9.52632906 171.148926,9.52632906 C169.227089,9.52632906 167.864145,10.8599615 167.864145,13.3415427 L167.864145,21.7776966 C167.864145,22.1805598 167.553701,22.4912863 167.151205,22.4912863 L165.260836,22.4912863 C164.85787,22.4912863 164.547897,22.1805598 164.547897,21.7776966" id="Fill-24" fill="#000000"></path>
                    <path d="M35.2943003,37.1514188 C37.2151974,37.1514188 38.8890549,36.1590684 38.8890549,33.8015897 L38.8890549,33.3366752 C38.8890549,30.7935128 37.2151974,29.9247949 35.2943003,29.9247949 L30.305134,29.9247949 L30.305134,37.1514188 L35.2943003,37.1514188 Z M29.5921947,48.5030427 L27.7027646,48.5030427 C27.2993293,48.5030427 26.9898253,48.1927863 26.9898253,47.7899231 L26.9898253,27.5367607 C26.9898253,27.1024017 27.2993293,26.7921453 27.7027646,26.7921453 L35.5108121,26.7921453 C39.4470074,26.7921453 42.2043636,28.9324444 42.2043636,33.1505214 L42.2043636,33.8326154 C42.2043636,36.624453 40.9339414,38.8263333 37.927667,39.7260769 L41.9568544,47.3555641 C42.1118412,47.6037692 42.2043636,47.7899231 42.2043636,48.0071026 C42.2043636,48.2863333 41.9878517,48.5030427 41.7088755,48.5030427 L39.3230179,48.5030427 C38.9195826,48.5030427 38.7030707,48.2242821 38.5480839,47.9140256 L34.6438253,40.2840684 L30.305134,40.2840684 L30.305134,47.7899231 C30.305134,48.1927863 29.9951604,48.5030427 29.5921947,48.5030427 L29.5921947,48.5030427 Z" id="Fill-26" fill="#000000"></path>
                    <path d="M46.1698185,44.1301667 C46.1698185,45.6809786 47.4402406,46.1769188 48.7106628,46.1769188 L49.2070902,46.1769188 C52.0884359,46.1769188 52.4909319,44.3163205 52.4909319,42.641406 L52.4909319,41.866235 L49.3921351,41.866235 C47.4402406,41.866235 46.1698185,42.3311496 46.1698185,44.1301667 M54.8777288,48.5033718 L53.2038712,48.5033718 C52.8009055,48.5033718 52.4909319,48.1931154 52.4909319,47.7897821 L52.4909319,46.7659359 C51.840457,48.1000385 50.2290639,48.8136282 48.555676,48.8136282 L48.0601879,48.8136282 C45.4568792,48.8136282 43.0710216,47.5726026 43.0710216,44.1301667 C43.0710216,39.7564915 47.1612644,39.4156795 49.2996127,39.4156795 L52.4909319,39.4156795 L52.4909319,38.6094829 C52.4909319,36.7484145 51.7479346,35.5388846 49.4545995,35.5388846 C47.471238,35.5388846 47.068742,36.3450812 46.8512908,37.2753803 C46.7587683,37.5546111 46.6037815,37.7717906 46.2623409,37.7717906 L44.3104464,37.7717906 C43.9699451,37.7717906 43.7214966,37.5546111 43.7214966,37.2133291 C43.7214966,37.1512778 43.7529636,36.965594 43.7839609,36.8410214 C44.1244623,35.1976026 45.0543831,32.6849957 49.4545995,32.6849957 C54.6917446,32.6849957 55.5906681,35.7560641 55.5906681,38.7020897 L55.5906681,47.7897821 C55.5906681,48.1931154 55.2802248,48.5033718 54.8777288,48.5033718" id="Fill-28" fill="#000000"></path>
                    <path d="M58.5643483,47.7898761 L58.5643483,33.7394915 C58.5643483,33.3051325 58.8743219,32.9953462 59.2772876,32.9953462 L61.167657,32.9953462 C61.570153,32.9953462 61.8805963,33.3051325 61.8805963,33.7394915 L61.8805963,47.7898761 C61.8805963,48.1927393 61.570153,48.5034658 61.167657,48.5034658 L59.2772876,48.5034658 C58.8743219,48.5034658 58.5643483,48.1927393 58.5643483,47.7898761 M62.252095,28.622141 C62.252095,29.8006453 61.4151662,30.6383376 60.2062691,30.6383376 C59.0293087,30.6383376 58.1928496,29.8006453 58.1928496,28.622141 C58.1928496,27.4436368 59.0293087,26.6064145 60.2062691,26.6064145 C61.4151662,26.6064145 62.252095,27.4436368 62.252095,28.622141" id="Fill-30" fill="#000000"></path>
                    <path d="M65.1019266,47.7898761 L65.1019266,27.5367137 C65.1019266,27.1023547 65.4119003,26.7920983 65.814866,26.7920983 L67.7052354,26.7920983 C68.1077314,26.7920983 68.4181747,27.1023547 68.4181747,27.5367137 L68.4181747,47.7898761 C68.4181747,48.1927393 68.1077314,48.5034658 67.7052354,48.5034658 L65.814866,48.5034658 C65.4119003,48.5034658 65.1019266,48.1927393 65.1019266,47.7898761" id="Fill-32" fill="#000000"></path>
                    <path d="M91.8439609,33.5225 C91.8439609,33.7086538 91.7199715,34.0499359 91.6265098,34.3291667 L87.2572908,48.0072436 C87.133771,48.3480556 86.8547947,48.5031838 86.5448211,48.5031838 L84.8099082,48.5031838 C84.3764148,48.5031838 84.1589636,48.1623718 84.0974385,47.9451923 L80.8741826,37.1825855 L77.7138607,47.9757479 C77.6513963,48.223953 77.4348844,48.5031838 77.0009214,48.5031838 L75.2030744,48.5031838 C74.8315757,48.5031838 74.5840665,48.2860043 74.4906047,48.0072436 L70.0288633,34.2671154 C69.9048739,33.8948077 69.8424095,33.6470726 69.8424095,33.5225 C69.8424095,33.2127137 70.0598607,32.9955342 70.368895,32.9955342 L72.4771852,32.9955342 C72.8486839,32.9955342 73.1271905,33.2432692 73.2511799,33.7396795 L76.19499,44.0683974 L79.1697974,33.7396795 C79.2632591,33.3363462 79.448304,32.9955342 79.9447314,32.9955342 L81.8656285,32.9955342 C82.2681245,32.9955342 82.4855757,33.2432692 82.6405625,33.7396795 L85.708362,43.8512179 L88.4351905,33.7396795 C88.5591799,33.2432692 88.8066892,32.9955342 89.2096549,32.9955342 L91.3475335,32.9955342 C91.6265098,32.9955342 91.8439609,33.2127137 91.8439609,33.5225" id="Fill-34" fill="#000000"></path>
                    <path d="M94.8793071,44.1301667 C94.8793071,45.6809786 96.1497293,46.1769188 97.4201515,46.1769188 L97.9165789,46.1769188 C100.797925,46.1769188 101.200421,44.3163205 101.200421,42.641406 L101.200421,41.866235 L98.1016237,41.866235 C96.1497293,41.866235 94.8793071,42.3311496 94.8793071,44.1301667 M103.587217,48.5033718 L101.91336,48.5033718 C101.510394,48.5033718 101.200421,48.1931154 101.200421,47.7897821 L101.200421,46.7659359 C100.549946,48.1000385 98.9385525,48.8136282 97.2651646,48.8136282 L96.7696765,48.8136282 C94.1663678,48.8136282 91.7805103,47.5726026 91.7805103,44.1301667 C91.7805103,39.7564915 95.870753,39.4156795 98.0091013,39.4156795 L101.200421,39.4156795 L101.200421,38.6094829 C101.200421,36.7484145 100.457423,35.5388846 98.1640881,35.5388846 C96.1807266,35.5388846 95.7782306,36.3450812 95.5607794,37.2753803 C95.468257,37.5546111 95.3132702,37.7717906 94.9718296,37.7717906 L93.0199351,37.7717906 C92.6794338,37.7717906 92.4309852,37.5546111 92.4309852,37.2133291 C92.4309852,37.1512778 92.4624522,36.965594 92.4934496,36.8410214 C92.8339509,35.1976026 93.7638718,32.6849957 98.1640881,32.6849957 C103.401233,32.6849957 104.300157,35.7560641 104.300157,38.7020897 L104.300157,47.7897821 C104.300157,48.1931154 103.989713,48.5033718 103.587217,48.5033718" id="Fill-36" fill="#000000"></path>
                    <path d="M119.451902,33.5225 C119.451902,33.6470726 119.359379,33.956859 119.265918,34.1740385 L113.316303,49.5890812 C112.045411,52.9694658 111.208952,54.7059615 107.58367,54.7059615 L106.220725,54.7059615 C105.81729,54.7059615 105.508255,54.3961752 105.508255,53.993312 L105.508255,52.3799786 C105.508255,51.9771154 105.81729,51.666859 106.220725,51.666859 L107.366688,51.666859 C109.164535,51.666859 109.722018,50.7986111 110.155981,49.6511325 L110.620941,48.3795513 L105.197812,34.4222436 C105.074292,34.0499359 104.919306,33.7086538 104.919306,33.5225 C104.919306,33.2127137 105.135817,32.9955342 105.445791,32.9955342 L107.615137,32.9955342 C107.800182,32.9955342 108.17262,33.088141 108.358134,33.6470726 L112.324387,44.3471581 L116.074598,33.6155769 C116.198118,33.1812179 116.477094,32.9955342 116.787068,32.9955342 L118.956414,32.9955342 C119.265918,32.9955342 119.451902,33.2127137 119.451902,33.5225" id="Fill-38" fill="#000000"></path>
                    <path d="M17.9605757,29.9661154 L0.738253826,29.9661154 C0.39728285,29.9703462 0.00699788918,30.2881239 0.00230131926,30.6609017 C0.00230131926,30.6632521 0.00136200528,31.2753034 0.00136200528,31.2776538 L-4.69656992e-05,32.5910726 C0.00371029024,32.972312 0.299594195,33.3032521 0.659351451,33.3032521 L12.7192037,33.2990214 C12.7192037,33.2990214 9.6603277,36.3390641 9.39919842,36.6004316 L0.751404222,36.6004316 C0.312744591,36.6004316 0.015451715,36.9388932 0.019208971,37.3196624 L0.019208971,39.2747479 C0.0229662269,39.6555171 0.336697098,39.9653034 0.683303958,39.9610726 L6.05101372,39.9582521 L0.268596834,45.7567564 C0.0981113456,45.9273974 0.015921372,46.1897051 0.015921372,46.4510726 L0.015921372,47.8838932 C0.014982058,48.2261154 0.352195778,48.5547051 0.694106069,48.5547051 L2.14346755,48.5547051 C2.42526174,48.5547051 2.6408343,48.4776111 2.80709288,48.3112009 L15.2375045,35.8680385 L15.2393831,40.2365427 L7.6346971,47.8481667 C7.42710871,48.0305598 7.44401636,48.559406 8.00807441,48.559406 L11.200333,48.559406 C11.5427129,48.559406 11.7662697,48.4841923 12.0043858,48.2383376 L15.2360955,44.9985085 L15.2365652,47.9365427 C15.2407921,48.2829957 15.5554623,48.5636368 15.9358844,48.559406 L17.9605757,48.559406 C18.3029557,48.559406 18.5824016,48.2797051 18.5824016,47.9374829 L18.5824016,30.5786368 C18.5824016,30.2359444 18.3029557,29.9557735 17.9605757,29.9557735" id="Fill-40" fill="#0092CB"></path>
                </g>
            </g>
        </g>
    </g>
</svg>